<svg preserveAspectRatio="none" overflow="visible" style="display: block;" width="11" height="11" viewBox="0 0 11 11" fill="none" xmlns="http://www.w3.org/2000/svg">
<path id="Vector" d="M2.75 1.61765C2.48107 1.61765 2.26471 1.40129 2.26471 1.13235C2.26471 0.863419 2.48107 0.647059 2.75 0.647059H5.01471C5.28364 0.647059 5.5 0.863419 5.5 1.13235C5.5 1.40129 5.28364 1.61765 5.01471 1.61765H2.75ZM2.75 2.26471H5.01471C5.58493 2.26471 6.05809 1.8421 6.13493 1.29412H6.47059C6.82849 1.29412 7.11765 1.58327 7.11765 1.94118V4.32721C7.32794 4.27261 7.54228 4.23621 7.76471 4.21801V1.94118C7.76471 1.22739 7.18438 0.647059 6.47059 0.647059H6.03787C5.85588 0.26489 5.46563 0 5.01471 0H2.75C2.29908 0 1.90882 0.26489 1.72684 0.647059H1.29412C0.580331 0.647059 0 1.22739 0 1.94118V9.05882C0 9.77261 0.580331 10.3529 1.29412 10.3529H4.93382C4.78824 10.1507 4.66287 9.93438 4.55772 9.70588H1.29412C0.936213 9.70588 0.647059 9.41673 0.647059 9.05882V1.94118C0.647059 1.58327 0.936213 1.29412 1.29412 1.29412H1.62978C1.70864 1.8421 2.17978 2.26471 2.75 2.26471ZM10.3529 8.08824C10.3529 6.83658 9.33989 5.82353 8.08824 5.82353C6.83658 5.82353 5.82353 6.83658 5.82353 8.08824C5.82353 9.33989 6.83658 10.3529 8.08824 10.3529C9.33989 10.3529 10.3529 9.33989 10.3529 8.08824ZM5.17647 8.08824C5.17647 6.4807 6.4807 5.17647 8.08824 5.17647C9.69577 5.17647 11 6.4807 11 8.08824C11 9.69577 9.69577 11 8.08824 11C6.4807 11 5.17647 9.69577 5.17647 8.08824ZM8.41176 6.79412V7.76471H9.05882C9.23677 7.76471 9.38235 7.91029 9.38235 8.08824C9.38235 8.26618 9.23677 8.41176 9.05882 8.41176H8.08824C7.91029 8.41176 7.76471 8.26618 7.76471 8.08824V6.79412C7.76471 6.61618 7.91029 6.47059 8.08824 6.47059C8.26618 6.47059 8.41176 6.61618 8.41176 6.79412Z" fill="#535459"/>
</svg>
